# xmcd
#
# Track frame offsets:
#   150
#   18165
#   36723
#   53542
#   73238
#   88765
#   106290
#   119527
#   137447
#   154943
#   173767
#   190876
#   208013
#   223160
#   239905
#   251831
#   268777
#   283348
#   300673
#   314064
#
# Disc length: 4340 seconds
#
# Revision: 0
# Processed by: cddbd v1.5.2PL0 Copyright (c) Steve Scherf et al.
# Submitted via: uFREEDB ActiveX Control 1.5
#
DISCID=4010f214
DTITLE=sertanejo - sertanejo
DYEAR=1900
DGENRE=Alternative
TTITLE0=faixa1
TTITLE1=faixa2
TTITLE2=faixa3
TTITLE3=faixa4
TTITLE4=faixa5
TTITLE5=faixa6
TTITLE6=faixa7
TTITLE7=faixa8
TTITLE8=faixa9
TTITLE9=faixa10
TTITLE10=faixa11
TTITLE11=faixa12
TTITLE12=faixa13
TTITLE13=faixa14
TTITLE14=faixa15
TTITLE15=faixa16
TTITLE16=faixa17
TTITLE17=faixa18
TTITLE18=faixa19
TTITLE19=faixa20
EXTD=
EXTT0=
EXTT1=
EXTT2=
EXTT3=
EXTT4=
EXTT5=
EXTT6=
EXTT7=
EXTT8=
EXTT9=
EXTT10=
EXTT11=
EXTT12=
EXTT13=
EXTT14=
EXTT15=
EXTT16=
EXTT17=
EXTT18=
EXTT19=
PLAYORDER=
